<?xml version="1.0" encoding="UTF-8"?>
<svg width="10px" height="8px" viewBox="0 0 10 8" version="1.1" xmlns="http://www.w3.org/2000/svg" xmlns:xlink="http://www.w3.org/1999/xlink">
    <!-- Generator: Sketch 48.2 (47327) - http://www.bohemiancoding.com/sketch -->
    <title>logout</title>
    <desc>Created with Sketch.</desc>
    <defs></defs>
    <g id="login_2_1" stroke="none" stroke-width="1" fill="none" fill-rule="evenodd" transform="translate(-630.000000, -609.000000)">
        <g id="Checkout-Widget" transform="translate(490.000000, 63.000000)" fill="#fff">
            <g id="Group-5" transform="translate(140.000000, 533.000000)">
                <path d="M5.16150232,18.6841214 C5.269695,18.5775545 5.41643577,18.5176858 5.56944334,18.5176858 L8.71220953,18.5176858 C9.05310211,18.5176862 9.32958794,18.2457474 9.33007914,17.9099777 L9.33007914,15.8869146 C9.32958794,15.5511448 9.05310211,15.2792061 8.71220953,15.2792064 L5.56944334,15.2792064 C5.41643577,15.2792064 5.269695,15.2193377 5.16150232,15.1127708 C5.05330963,15.0062039 4.99252762,14.8616682 4.99252762,14.7109598 L4.99252762,13.4192511 C4.99290386,13.2566435 4.89757158,13.1085568 4.74808813,13.0395452 C4.59860467,12.9705336 4.42206291,12.9931051 4.29542112,13.0974201 L0.207154164,16.4551612 C0.0759130118,16.5626216 0,16.7220135 0,16.8901153 C0,17.0582172 0.0759130118,17.217609 0.207154164,17.3250695 L4.29542112,20.6819336 C4.42193945,20.7861463 4.59827354,20.8087834 4.74768409,20.7399934 C4.89709464,20.6712035 4.99255738,20.5234287 4.99252762,20.3609796 L4.99252762,19.0859324 C4.99252762,18.9352241 5.05330963,18.7906883 5.16150232,18.6841214 Z" id="logout" transform="translate(4.665040, 16.889676) scale(-1, 1) rotate(-180.000000) translate(-4.665040, -16.889676) "></path>
            </g>
        </g>
    </g>
</svg>
